<?xml version="1.0" encoding="UTF-8" standalone="no" ?>
<!DOCTYPE svg PUBLIC "-//W3C//DTD SVG 1.1//EN" "http://www.w3.org/Graphics/SVG/1.1/DTD/svg11.dtd">
<svg xmlns="http://www.w3.org/2000/svg" xmlns:xlink="http://www.w3.org/1999/xlink" version="1.1" width="1080" height="1080" viewBox="0 0 1080 1080" xml:space="preserve">
<desc>Created with Fabric.js 5.2.4</desc>
<defs>
</defs>
<g transform="matrix(1 0 0 1 540 540)" id="895fb9dd-446d-4f40-9686-2e7b062c4325"  >
<rect style="stroke: none; stroke-width: 1; stroke-dasharray: none; stroke-linecap: butt; stroke-dashoffset: 0; stroke-linejoin: miter; stroke-miterlimit: 4; fill: rgb(255,255,255); fill-rule: nonzero; opacity: 1; visibility: hidden;" vector-effect="non-scaling-stroke"  x="-540" y="-540" rx="0" ry="0" width="1080" height="1080" />
</g>
<g transform="matrix(1 0 0 1 540 540)" id="77168d47-8c09-4534-839c-4afc50aab7f1"  >
</g>
<g transform="matrix(1 0 0 1 540 540)"  >
<g style="" vector-effect="non-scaling-stroke"   >
		<g transform="matrix(33.33 0 0 33.33 150 -99.97)"  >
<path style="stroke: none; stroke-width: 1; stroke-dasharray: none; stroke-linecap: butt; stroke-dashoffset: 0; stroke-linejoin: miter; stroke-miterlimit: 4; fill: rgb(220,38,38); fill-rule: nonzero; opacity: 1;" vector-effect="non-scaling-stroke"  transform=" translate(-16.5, -9)" d="M 17.25 7.00017 C 17.25 6.58595 16.9142 6.25017 16.5 6.25017 C 16.0858 6.25017 15.75 6.58595 15.75 7.00017 L 15.75 8.25018 L 14.5 8.25018 C 14.0858 8.25018 13.75 8.58597 13.75 9.00018 C 13.75 9.4144 14.0858 9.75018 14.5 9.75018 L 15.75 9.75018 L 15.75 11.0002 C 15.75 11.4144 16.0858 11.7502 16.5 11.7502 C 16.9142 11.7502 17.25 11.4144 17.25 11.0002 L 17.25 9.75018 L 18.5 9.75018 C 18.9142 9.75018 19.25 9.4144 19.25 9.00018 C 19.25 8.58597 18.9142 8.25018 18.5 8.25018 L 17.25 8.25018 L 17.25 7.00017 Z" stroke-linecap="round" />
</g>
		<g transform="matrix(33.33 0 0 33.33 0 0)"  >
<path style="stroke: none; stroke-width: 1; stroke-dasharray: none; stroke-linecap: butt; stroke-dashoffset: 0; stroke-linejoin: miter; stroke-miterlimit: 4; fill: rgb(220,38,38); fill-rule: evenodd; opacity: 1;" vector-effect="non-scaling-stroke"  transform=" translate(-12, -12)" d="M 22.75 9.31763 C 22.75 5.99224 21.2676 3.50983 18.9609 2.60661 C 16.8252 1.77035 14.2618 2.39603 12 4.51334 C 9.73815 2.39603 7.17479 1.77035 5.0391 2.60662 C 2.73242 3.50984 1.25 5.99226 1.25 9.31767 C 1.25 11.4356 2.38041 13.5198 3.78729 15.3141 C 5.20863 17.1269 6.99671 18.7501 8.48914 19.9612 L 8.62327 20.0701 C 9.82386 21.0458 10.6906 21.7502 12 21.7502 C 13.3094 21.7502 14.1762 21.0458 15.3767 20.0702 L 15.5109 19.9612 C 17.0033 18.7501 18.7914 17.1269 20.2127 15.3141 C 21.6196 13.5198 22.75 11.4356 22.75 9.31763 Z M 12.5478 6.08652 C 14.6596 3.82795 16.8491 3.39059 18.414 4.00335 C 19.9823 4.61747 21.25 6.41304 21.25 9.31763 C 21.25 10.9291 20.3707 12.6816 19.0323 14.3886 C 17.7084 16.0772 16.0156 17.6199 14.5657 18.7965 C 13.1731 19.9265 12.7229 20.2502 12 20.2502 C 11.2771 20.2502 10.8269 19.9265 9.43432 18.7964 C 7.98445 17.6199 6.29166 16.0771 4.96771 14.3886 C 3.62931 12.6816 2.75 10.929 2.75 9.31767 C 2.75 6.41306 4.01766 4.61747 5.58602 4.00336 C 7.15092 3.39059 9.34039 3.82795 11.4522 6.08652 C 11.594 6.2382 11.7923 6.32429 12 6.32429 C 12.2077 6.32429 12.406 6.2382 12.5478 6.08652 Z" stroke-linecap="round" />
</g>
</g>
</g>
<g transform="matrix(NaN NaN NaN NaN 0 0)"  >
<g style=""   >
</g>
</g>
<g transform="matrix(NaN NaN NaN NaN 0 0)"  >
<g style=""   >
</g>
</g>
<g transform="matrix(NaN NaN NaN NaN 0 0)"  >
<g style=""   >
</g>
</g>
<g transform="matrix(NaN NaN NaN NaN 0 0)"  >
<g style=""   >
</g>
</g>
</svg>